<?xml version="1.0" encoding="UTF-8"?>
<svg width="21px" height="24px" viewBox="0 0 21 24" version="1.1" xmlns="http://www.w3.org/2000/svg" xmlns:xlink="http://www.w3.org/1999/xlink">
    <!-- Generator: Sketch 62 (91390) - https://sketch.com -->
    <title>icon-discord</title>
    <desc>Created with Sketch.</desc>
    <g id="Site" stroke="none" stroke-width="1" fill="none" fill-rule="evenodd">
        <g id="Desktop-HD-Copy-2" transform="translate(-840.000000, -608.000000)" fill="#FF9933" fill-rule="nonzero">
            <path d="M858.529412,608 C859.884637,608 860.988007,609.113464 861,610.481089 L861,610.481089 L861,632 L858.40948,629.736762 L856.95831,628.393343 L855.423187,626.965204 L856.058824,629.18003 L842.458595,629.18003 C841.10337,629.18003 840,628.066566 840,626.698941 L840,626.698941 L840,610.481089 C840,609.113464 841.10337,608 842.458595,608 L842.458595,608 Z M848.647059,613.603631 C848.647059,613.603631 847.015991,613.567322 845.288978,614.86233 C845.288978,614.86233 843.561965,617.996974 843.561965,621.857791 C843.561965,621.857791 844.569389,623.600605 847.219874,623.685325 C847.219874,623.685325 847.663621,623.152799 848.023415,622.69289 C846.500286,622.23298 845.924615,621.276853 845.924615,621.276853 C845.924615,621.276853 846.044546,621.361573 846.260423,621.482602 C846.272416,621.482602 846.284409,621.494705 846.308395,621.506808 C846.344375,621.531014 846.380354,621.543116 846.416334,621.567322 C846.716162,621.736762 847.015991,621.869894 847.291833,621.97882 C847.783552,622.184569 848.371216,622.366112 849.054826,622.499244 C849.954312,622.668684 851.009709,622.729198 852.161051,622.511346 C852.724729,622.402421 853.3004,622.245083 853.900057,621.990923 C854.319817,621.833585 854.78755,621.603631 855.279269,621.276853 C855.279269,621.276853 854.679612,622.257186 853.108509,622.704992 C853.468304,623.152799 853.900057,623.673222 853.900057,623.673222 C856.550543,623.588502 857.557967,621.845688 857.557967,621.857791 C857.557967,617.996974 855.830954,614.86233 855.830954,614.86233 C854.238435,613.659823 852.707963,613.605236 852.497449,613.603574 L852.472873,613.603631 L852.304969,613.797277 C854.343804,614.414523 855.291262,615.322239 855.291262,615.322239 C854.043975,614.644478 852.820674,614.305598 851.681325,614.172466 C850.817818,614.075643 849.990291,614.099849 849.258709,614.196672 C849.18675,614.196672 849.126785,614.208775 849.054826,614.220877 C848.635066,614.269289 847.615648,614.414523 846.332381,614.983359 C845.888635,615.177005 845.624786,615.322239 845.624786,615.322239 C845.624786,615.322239 846.608224,614.366112 848.76699,613.748865 L848.76699,613.748865 Z M852.700742,618.069592 C853.372359,618.069592 853.924043,618.662632 853.924043,619.400908 C853.924043,620.139183 853.384352,620.732224 852.700742,620.732224 C852.029126,620.732224 851.477441,620.139183 851.477441,619.400908 C851.477441,618.662632 852.017133,618.069592 852.700742,618.069592 Z M848.323244,618.069592 C849.006853,618.069592 849.558538,618.662632 849.546545,619.400908 C849.546545,620.139183 849.006853,620.732224 848.323244,620.732224 C847.651628,620.732224 847.099943,620.139183 847.099943,619.400908 C847.099943,618.662632 847.639634,618.069592 848.323244,618.069592 Z" id="icon-discord"></path>
        </g>
    </g>
</svg>