<?xml version="1.0" encoding="UTF-8"?>
<svg width="24px" height="20px" viewBox="0 0 24 20" version="1.1" xmlns="http://www.w3.org/2000/svg" xmlns:xlink="http://www.w3.org/1999/xlink">
    <!-- Generator: Sketch 62 (91390) - https://sketch.com -->
    <title>icon-twitter</title>
    <desc>Created with Sketch.</desc>
    <g id="Site" stroke="none" stroke-width="1" fill="none" fill-rule="evenodd">
        <g id="Desktop-HD-Copy-2" transform="translate(-656.000000, -560.000000)" fill="#FF9933" fill-rule="nonzero">
            <path d="M663.54752,580 C672.60416,580 677.55776,572.304803 677.55776,565.631562 C677.55776,565.412993 677.55776,565.195409 677.54336,564.978809 C678.507038,564.263943 679.338901,563.378806 680,562.364845 C679.101324,562.773235 678.147996,563.041058 677.17184,563.159372 C678.199754,562.528261 678.969079,561.535634 679.33664,560.36622 C678.370071,560.954441 677.31262,561.36899 676.20992,561.591977 C674.683599,559.927501 672.258291,559.520115 670.293967,560.598257 C668.329644,561.676399 667.314824,563.971941 667.81856,566.197675 C663.85942,565.99412 660.170697,564.076301 657.6704,560.921503 C656.363478,563.228925 657.031028,566.1808 659.19488,567.662677 C658.411272,567.638858 657.644748,567.422067 656.96,567.0306 C656.96,567.051275 656.96,567.072935 656.96,567.094595 C656.960641,569.498451 658.612881,571.568891 660.9104,572.044883 C660.185475,572.24764 659.424877,572.277279 658.68704,572.131523 C659.33211,574.188652 661.180712,575.59789 663.28736,575.638469 C661.543746,577.043839 659.389817,577.806758 657.17216,577.804466 C656.780387,577.803695 656.388996,577.779368 656,577.73161 C658.251811,579.213621 660.871917,579.999721 663.54752,579.996062" id="icon-twitter"></path>
        </g>
    </g>
</svg>