<?xml version="1.0" encoding="UTF-8"?>
<svg width="24px" height="22px" viewBox="0 0 24 22" version="1.1" xmlns="http://www.w3.org/2000/svg" xmlns:xlink="http://www.w3.org/1999/xlink">
    <!-- Generator: Sketch 62 (91390) - https://sketch.com -->
    <title>icon-itch</title>
    <desc>Created with Sketch.</desc>
    <g id="Site" stroke="none" stroke-width="1" fill="none" fill-rule="evenodd">
        <g id="Desktop-HD-Copy-2" transform="translate(-481.000000, -609.000000)" fill="#FF9933" fill-rule="nonzero">
            <path d="M484.128963,609.136063 C483.082096,609.76945 481.019562,612.183892 481,612.817079 L481,613.865182 C481,615.193748 482.218721,616.361451 483.325253,616.361451 C484.653913,616.361451 485.760934,615.239396 485.761032,613.90764 C485.761032,615.239396 486.830103,616.361451 488.158861,616.361451 C489.487717,616.361451 490.522456,615.239396 490.522456,613.90764 C490.522456,615.239396 491.659211,616.361451 492.987969,616.361451 L493.012031,616.361451 C494.340886,616.361451 495.477642,615.239396 495.477642,613.90764 C495.477642,615.239396 496.512479,616.361451 497.841139,616.361451 C499.169897,616.361451 500.238968,615.239396 500.238968,613.90764 C500.238968,615.239396 501.346185,616.361451 502.674747,616.361451 C503.781279,616.361451 505,615.193947 505,613.865182 L505,612.817079 C504.980438,612.183793 502.917904,609.76925 501.871232,609.136063 C498.617462,609.019652 496.361753,608.999519 492.999902,609.000009 C489.638149,609.000316 485.054937,609.053838 484.128768,609.136063 L484.128963,609.136063 Z M490.505632,615.735739 C490.378585,615.961413 490.221219,616.167893 490.038097,616.349192 C489.536524,616.848924 488.849013,617.158691 488.091078,617.158691 C487.361735,617.159387 486.66121,616.868605 486.139951,616.348793 C485.958219,616.167399 485.82011,615.973446 485.693641,615.7476 L485.693054,615.747998 C485.566682,615.974243 485.390623,616.168096 485.2085,616.34969 C484.687041,616.86912 483.986596,617.159654 483.257372,617.15899 C483.166017,617.15899 483.070945,617.133275 482.994066,617.106365 C482.887257,618.239783 482.842166,619.322968 482.826223,620.112733 L482.826027,620.117218 C482.824071,620.518279 482.822115,620.848079 482.820159,621.30625 C482.840699,623.684314 482.589032,629.013928 483.849127,630.323458 C485.801819,630.787409 489.394992,630.998704 492.999804,631 L493.000391,631 C496.605106,630.998704 500.198279,630.787409 502.150971,630.323458 C503.411066,629.013828 503.159399,623.684214 503.179939,621.30615 C503.177787,620.848079 503.176027,620.518279 503.17407,620.117118 L503.173777,620.112633 C503.157932,619.322669 503.112841,618.239584 503.006032,617.106166 C502.929152,617.133076 502.834178,617.15879 502.742725,617.15879 C502.013502,617.159455 501.313057,616.868921 500.791598,616.349491 C500.609475,616.167897 500.433415,615.974144 500.306946,615.747799 L500.306359,615.7474 C500.179792,615.973247 500.041781,616.167299 499.860049,616.348594 C499.33881,616.868363 498.638319,617.15911 497.90902,617.158392 C497.151183,617.158392 496.463574,616.848426 495.962001,616.348793 C495.778878,616.167495 495.621512,615.961014 495.494466,615.735341 C495.36878,615.960766 495.21287,616.167237 495.031234,616.348793 C494.509849,616.868508 493.809278,617.159208 493.079911,617.158491 C493.053502,617.158491 493.027094,617.157295 493.000685,617.156498 L493,617.156498 C492.973591,617.157295 492.947182,617.158491 492.92048,617.158491 C492.191127,617.159235 491.490558,616.868571 490.969157,616.348893 C490.787524,616.167335 490.631613,615.960864 490.505926,615.735341 L490.505632,615.735739 Z M488.501883,618.375929 L488.501687,618.376925 L488.503154,618.376925 C489.296692,618.37862 490.001614,618.376925 490.875063,619.348284 C491.562477,619.274829 492.280798,619.238151 492.999707,619.239248 L493.000293,619.239248 C493.719202,619.238251 494.437523,619.274829 495.125035,619.348284 C495.998484,618.376826 496.703405,618.37852 497.496943,618.376925 L497.498313,618.376925 L497.498117,618.375929 C497.873025,618.375929 499.372756,618.375929 500.417766,621.366648 L501.540241,625.469456 C502.372023,628.521671 501.273902,628.596321 499.904162,628.599012 C497.87283,628.52197 496.748105,627.018786 496.748105,625.515802 C495.623673,625.703575 494.311935,625.797462 493.000196,625.797561 L492.999609,625.797561 C491.687772,625.797561 490.376033,625.703575 489.251699,625.515802 C489.251699,627.018786 488.126877,628.52197 486.095643,628.599012 C484.725902,628.596321 483.627879,628.52177 484.459661,625.469456 L485.58243,621.366748 C486.627439,618.375929 488.12717,618.375929 488.502078,618.375929 L488.501883,618.375929 Z M492.999707,620.726285 L492.999707,620.726883 C492.99775,620.728876 490.861272,622.728204 490.477169,623.439331 L491.876253,623.382222 L491.876253,624.625473 C491.876253,624.683679 492.437686,624.659958 492.999707,624.633446 L493.000293,624.633446 C493.562118,624.659958 494.123649,624.683679 494.123649,624.625473 L494.123649,623.382222 L495.522733,623.439331 C495.138533,622.728204 493.000196,620.726883 493.000196,620.726883 L493.000196,620.726285 L492.999902,620.726484 L492.999707,620.726285 Z" id="icon-itch"></path>
        </g>
    </g>
</svg>